<?xml version="1.0" encoding="utf-8"?>
<!-- Generator: Adobe Illustrator 15.0.2, SVG Export Plug-In . SVG Version: 6.00 Build 0)  -->
<!DOCTYPE svg PUBLIC "-//W3C//DTD SVG 1.1//EN" "http://www.w3.org/Graphics/SVG/1.1/DTD/svg11.dtd">
<svg version="1.1" id="Layer_1" xmlns="http://www.w3.org/2000/svg" xmlns:xlink="http://www.w3.org/1999/xlink" x="0px" y="0px"
	viewBox="0 0 112.663 112.662" enable-background="new 0 0 112.663 112.662"
	 xml:space="preserve">
<linearGradient id="SVGID_1_" gradientUnits="userSpaceOnUse" x1="22.7305" y1="56.3311" x2="112.6631" y2="56.3311">
	<stop  offset="0" style="stop-color:#47D6A6"/>
	<stop  offset="1" style="stop-color:#08BF9C"/>
</linearGradient>
<path fill="url(#SVGID_1_)" d="M91.481,0.004H68.387C68.374,0.004,68.361,0,68.349,0s-0.025,0.004-0.038,0.004l-0.191,0.02
	c-0.719,0.111-1.271,0.729-1.271,1.478s0.696,1.175,1.271,1.476c0.002,0.001,0,0.007,0,0.007c3.475,1.675,6.773,3.756,9.813,6.245
	l-0.004,0.004c4.477,4.758,4.351,12.139-0.397,16.609c-4.471,4.203-10.861,3.615-15.841,0.248c-0.121-0.082-0.293-0.152-0.427-0.242
	c-5.621-3.791-12.487-5.158-19.12-3.822c-13.705,2.738-21.617,16.128-18.872,29.836c2.363,11.805,11.818,20.363,23.843,20.363
	c1.668,0,3.329-0.059,4.994-0.268c8.819-1.113,16.539-6.164,19.861-13.623l-9.175,0.032v1.224c0,1.391-0.839,2.654-2.13,3.189
	c-1.289,0.542-2.781,0.248-3.77-0.733L44.584,49.865c-0.66-0.65-1.03-1.537-1.03-2.459c0-0.928,0.37-1.814,1.03-2.465L56.89,32.758
	c0.994-0.979,2.48-1.277,3.775-0.736c1.291,0.543,2.13,1.805,2.13,3.201v1.247h21.382v0.009c3.896,0.039,7.684,1.975,9.906,5.518
	c1.566,2.5,1.906,5.338,1.61,8.066c-0.522,4.825-1.361,9.527-3.022,13.947c0.013-0.006,0.013-0.006,0.013-0.006
	c-5.854,27.1-27.378,48.658-38.127,48.658h36.925c11.699,0,21.182-9.486,21.182-21.186V21.193
	C112.663,9.494,103.181,0.004,91.481,0.004z"/>
<path fill="#0D9B80" d="M92.662,64.01c-1.403,3.775-3.271,7.348-5.552,10.639c-0.028,0.043-0.058,0.082-0.079,0.127
	c-0.514,0.732-1.046,1.447-1.595,2.148c-0.144,0.191-0.297,0.377-0.44,0.559c-0.535,0.666-1.077,1.32-1.645,1.951
	c-0.125,0.137-0.256,0.271-0.377,0.404c-1.046,1.143-2.14,2.227-3.297,3.266c-0.277,0.252-0.545,0.517-0.832,0.759
	c-0.494,0.421-0.998,0.823-1.508,1.231c-0.434,0.344-0.868,0.682-1.32,1.014c-0.473,0.352-0.957,0.691-1.441,1.033
	c-0.562,0.383-1.135,0.746-1.709,1.097c-0.415,0.265-0.823,0.532-1.254,0.784c-0.984,0.57-1.989,1.109-3.022,1.62
	c-0.335,0.159-0.679,0.306-1.017,0.462c-0.781,0.361-1.576,0.705-2.386,1.03c-0.408,0.159-0.816,0.313-1.23,0.466
	c-0.804,0.293-1.62,0.568-2.449,0.819c-0.38,0.118-0.753,0.239-1.135,0.348c-1.206,0.341-2.43,0.651-3.68,0.896
	c-3.16,0.635-6.391,0.957-9.589,0.957c-18.992,0-35.896-11.121-43.86-27.658c-0.075-0.187-0.164-0.35-0.216-0.52
	c-0.022-0.072-0.106-0.278-0.141-0.359c-0.255-0.639-0.865-1.03-1.387-1.03c-0.822,0-1.488,0.661-1.5,1.48H0v23.944
	c0,11.699,9.482,21.186,21.182,21.186h33.366c10.749,0,32.272-21.559,38.127-48.668C92.675,63.994,92.675,64.004,92.662,64.01z"/>
</svg>
